<svg xmlns="http://www.w3.org/2000/svg" version="1.1" xmlns:xlink="http://www.w3.org/1999/xlink" xmlns:svgjs="http://svgjs.dev/svgjs" width="100%" height="100%" viewBox="0 0 1000 600"><rect width="1000" height="600" x="0" y="0" fill="white"/><g><circle r="166.66666666666666" cx="468.9987589518229" cy="371.8524278939565" fill="white" transform="matrix(0.6831962196475846,0,0,0.6831962196475846,-25.836028437457124,45.95181759067067)"/><path d="M254.17055155990087 413.4618417077943L254.17055155990087 413.4618417077943Q240.879412136025 413.4618417077943 233.66422216306384 408.2810098099161Q226.4219074157682 403.100177912038 223.60093088498638 393.03688663396053Q220.7799543542046 382.97359535588305 220.7799543542046 368.3262172152853L220.7799543542046 368.3262172152853L220.7799543542046 342.5576815975668Q220.7799543542046 327.53055661628673 223.70942998232417 317.5486396612126Q226.63890561044374 307.5938474804729 233.96259468074268 302.5215146799326Q241.28628375104162 297.4491818793922 254.17055155990087 297.4491818793922L254.17055155990087 297.4491818793922Q268.4110580854821 297.4491818793922 275.1651268947578 303.30813313563135Q281.89207092969906 309.1670843918705 284.03492810211986 320.20686754598773Q286.2049100488751 331.21952592577065 286.2049100488751 346.6535225220673L286.2049100488751 346.6535225220673L286.2049100488751 355.84882102144263L241.6660305917238 355.84882102144263L241.6660305917238 378.49800759070047Q241.6660305917238 385.3334507229795 242.9408949854425 389.6191650678211Q244.2157593791612 393.9320041869971 247.036735909943 395.9663622620801Q249.8577124407248 398.02784511149764 254.36042498024196 398.02784511149764L254.36042498024196 398.02784511149764Q259.05301094010014 398.02784511149764 261.4942406301998 395.776488841739Q263.93547032029943 393.5251325719805 264.80346309900153 389.3207925501422Q265.6985806520381 385.1435773026384 265.6985806520381 379.4744994667403L265.6985806520381 379.4744994667403L265.6985806520381 372.6390563344613L285.9879118541996 372.6390563344613L285.9879118541996 376.9247706793029Q285.9879118541996 393.9320041869971 278.7727218812384 403.6969229473956Q271.5575319082772 413.4618417077943 254.17055155990087 413.4618417077943ZM241.6660305917238 338.46184067306626L241.6660305917238 344.5106653496465L265.6985806520381 344.5106653496465L265.6985806520381 334.36599974856574Q265.6985806520381 327.3135584216112 264.9119621963393 322.5395981387496Q264.1253437406405 317.76563785588814 261.68411405054087 315.32440816578844Q259.2428843604412 312.88317847568885 253.98067813955979 312.88317847568885L253.98067813955979 312.88317847568885Q248.88122056468495 312.88317847568885 246.25011745424422 315.21590906845074Q243.61901434380349 317.5486396612126 242.64252246776365 323.1363431741073Q241.6660305917238 328.6969219126677 241.6660305917238 338.46184067306626L241.6660305917238 338.46184067306626ZM326.0240787718338 411.88860479639675L305.13800253431464 411.88860479639675L305.13800253431464 298.9952940164553L326.0240787718338 298.9952940164553L326.0240787718338 310.14357626791036Q331.6931566077319 304.85424527269447 338.52859974001086 301.16527596321055Q345.3640428722899 297.4491818793922 353.5828494956254 297.4491818793922L353.5828494956254 297.4491818793922Q360.41829262790435 297.4491818793922 364.02588761438494 300.94827776853504Q367.63348260086553 304.4744984320123 369.0982204149253 309.73670465289376Q370.5629582289851 315.02603564810966 370.5629582289851 320.47811528933215L370.5629582289851 320.47811528933215L370.5629582289851 411.88860479639675L349.6768819914659 411.88860479639675L349.6768819914659 326.5540647402469Q349.6768819914659 320.47811528933215 347.9137716597273 317.16889282053046Q346.15066132798864 313.8596703517287 340.67145691243167 313.8596703517287L340.67145691243167 313.8596703517287Q337.17236102328883 313.8596703517287 333.3477678421327 315.8940284268117Q329.5502994353111 317.95551127622923 326.0240787718338 320.8849869043488L326.0240787718338 320.8849869043488L326.0240787718338 411.88860479639675ZM422.1271542387566 413.4618417077943L422.1271542387566 413.4618417077943Q408.83601481488074 413.4618417077943 401.62082484191956 408.2810098099161Q394.3785100946239 403.100177912038 391.55753356384207 393.03688663396053Q388.73655703306025 382.97359535588305 388.73655703306025 368.3262172152853L388.73655703306025 368.3262172152853L388.73655703306025 342.5576815975668Q388.73655703306025 327.53055661628673 391.6660326611798 317.5486396612126Q394.59550828929946 307.5938474804729 401.91919735959834 302.5215146799326Q409.2428864298973 297.4491818793922 422.1271542387566 297.4491818793922L422.1271542387566 297.4491818793922Q436.3676607643378 297.4491818793922 443.1217295736135 303.30813313563135Q449.84867360855475 309.1670843918705 451.99153078097555 320.20686754598773Q454.1615127277308 331.21952592577065 454.1615127277308 346.6535225220673L454.1615127277308 346.6535225220673L454.1615127277308 355.84882102144263L409.62263327057946 355.84882102144263L409.62263327057946 378.49800759070047Q409.62263327057946 385.3334507229795 410.89749766429816 389.6191650678211Q412.1723620580168 393.9320041869971 414.9933385887987 395.9663622620801Q417.81431511958044 398.02784511149764 422.3170276590977 398.02784511149764L422.3170276590977 398.02784511149764Q427.0096136189558 398.02784511149764 429.4508433090555 395.776488841739Q431.8920729991551 393.5251325719805 432.7600657778572 389.3207925501422Q433.65518333089375 385.1435773026384 433.65518333089375 379.4744994667403L433.65518333089375 379.4744994667403L433.65518333089375 372.6390563344613L453.94451453305527 372.6390563344613L453.94451453305527 376.9247706793029Q453.94451453305527 393.9320041869971 446.72932456009414 403.6969229473956Q439.5141345871329 413.4618417077943 422.1271542387566 413.4618417077943ZM409.62263327057946 338.46184067306626L409.62263327057946 344.5106653496465L433.65518333089375 344.5106653496465L433.65518333089375 334.36599974856574Q433.65518333089375 327.3135584216112 432.86856487519503 322.5395981387496Q432.0819464194962 317.76563785588814 429.64071672939656 315.32440816578844Q427.1994870392969 312.88317847568885 421.9372808184155 312.88317847568885L421.9372808184155 312.88317847568885Q416.83782324354064 312.88317847568885 414.2067201330999 315.21590906845074Q411.5756170226592 317.5486396612126 410.5991251466193 323.1363431741073Q409.62263327057946 328.6969219126677 409.62263327057946 338.46184067306626L409.62263327057946 338.46184067306626ZM494.5774264860471 411.88860479639675L473.691350248528 411.88860479639675L473.691350248528 298.9952940164553L494.5774264860471 298.9952940164553L494.5774264860471 315.02603564810966Q500.8161245829684 304.6643718523534 507.0819474542242 301.16527596321055Q513.3206455511455 297.6390552997333 519.5864684224014 297.6390552997333L519.5864684224014 297.6390552997333Q520.3459621037657 297.6390552997333 521.0512062364611 297.6390552997333Q521.7293255948222 297.6390552997333 522.895690891203 297.8289287200744L522.895690891203 297.8289287200744L522.895690891203 320.8849869043488Q520.5629602984412 319.90849502830895 517.5249855729838 319.2303756699479Q514.4870108475264 318.52513153725243 511.3676617990658 318.52513153725243L511.3676617990658 318.52513153725243Q506.4852024188666 318.52513153725243 502.4978605917038 320.776487807011Q498.48339399020654 323.0278440767696 494.5774264860471 329.48354036836645L494.5774264860471 329.48354036836645L494.5774264860471 411.88860479639675ZM565.074714981258 446.85243891349046L565.074714981258 446.85243891349046Q554.9300493801774 446.85243891349046 546.7112427568419 444.70958174106966Q538.5195609078407 442.5395997943144 533.8269749479825 437.87413860879064Q529.1343889881243 433.18155264893244 529.1343889881243 425.55949106095466L529.1343889881243 425.55949106095466Q529.1343889881243 420.0802866453978 531.4942443552206 415.98444572089716Q533.8269749479825 411.88860479639675 537.5430690318009 408.85063007093936Q541.2591631156192 405.8397801198165 545.3550040401198 403.8867963677368L545.3550040401198 403.8867963677368Q539.8757996245628 402.31355945633925 537.1633221911187 398.8958378901997Q534.4237199833403 395.47811632406024 534.4237199833403 391.7620222402418L534.4237199833403 391.7620222402418Q534.4237199833403 385.52332414332056 537.732942452142 381.02061160380333Q541.0692896952783 376.54502383862075 546.9282409515174 371.25569284340486L546.9282409515174 371.25569284340486Q540.4725446599205 366.37323346320557 537.1633221911187 358.7782966495622Q533.8269749479825 351.1562350615844 533.8269749479825 337.6752222173675L533.8269749479825 337.6752222173675Q533.8269749479825 324.38408279349164 537.4345699344632 315.5142815861295Q541.0692896952783 306.6173556044331 548.1759805709016 302.0332687419126Q555.3097962208595 297.4491818793922 565.6714600166158 297.4491818793922L565.6714600166158 297.4491818793922Q574.8396337416566 297.4491818793922 580.4002124802171 300.56853092785286Q585.9879159931118 303.6878799763135 588.9173916212312 309.9537028475693L588.9173916212312 309.9537028475693Q589.8938834972712 308.38046593617173 594.1795978421126 304.58299752935Q598.4653121869544 300.75840434819395 604.1343900228524 298.23580033509097L604.1343900228524 298.23580033509097L607.253739071313 296.8524368440345L612.543070066529 310.33344968825145Q609.9933412790915 310.7131965289336 605.7890012572532 312.17793434299335Q601.6117860097495 313.6426721570532 597.9770662489343 315.10740997111293Q594.3694712624538 316.5721477851728 593.392979386414 317.5486396612126L593.392979386414 317.5486396612126Q594.7763428774704 320.8849869043488 595.8342090765136 327.12368500127013Q596.9192000498913 333.3895078725259 596.9192000498913 338.2719672527252L596.9192000498913 338.2719672527252Q596.9192000498913 349.77287157052797 593.9897244217716 358.5612984548867Q591.0602487936521 367.3497253392453 584.3061799843765 372.3406838167824Q577.5792359494351 377.3316422943195 565.6714600166158 377.3316422943195L565.6714600166158 377.3316422943195Q563.1217312291783 377.3316422943195 560.1922556010588 376.9247706793029Q557.2627799729393 376.54502383862075 554.9300493801774 375.94827880326307L554.9300493801774 375.94827880326307Q553.7636840837963 377.7113891350017 552.4888196900777 380.0441197277635Q551.2139552963589 382.4039750948599 551.2139552963589 384.5468322672807L551.2139552963589 384.5468322672807Q551.2139552963589 386.6896894397015 553.4653115661175 387.96455383342015Q555.716667835876 389.2394182271389 560.5991272160754 389.6191650678211L560.5991272160754 389.6191650678211L578.1759809847929 391.19240197921863Q591.4399956343343 392.3587672755996 597.895691925931 399.1942104078786Q604.3242634431936 406.0296535401576 604.3242634431936 418.72404792867576L604.3242634431936 418.72404792867576Q604.3242634431936 427.89222165371655 600.038549098352 434.2394188479757Q595.7528347535103 440.5866160422347 587.0457821921548 443.7330898650298Q578.3658544051339 446.85243891349046 565.074714981258 446.85243891349046ZM566.6479518926556 430.44195044115406L566.6479518926556 430.44195044115406Q577.7691093697763 430.44195044115406 583.0584403649921 427.8108473307133Q588.3206465858736 425.1797442202726 588.3206465858736 419.32079296403344L588.3206465858736 419.32079296403344Q588.3206465858736 415.7945723005562 587.0457821921548 413.4618417077943Q585.7709177984361 411.10198634069786 582.4616953296345 409.74574762397594Q579.1524728608326 408.3623841329194 572.8866499895769 407.7927638718962L572.8866499895769 407.7927638718962L555.1199228005183 406.21952696049857Q552.9770656280975 408.3623841329194 551.0240818760178 410.5323660796747Q549.0710981239381 412.6752232520955 547.9047328275573 415.1164529421951Q546.7112427568419 417.5576826322948 546.7112427568419 420.2972848400733L546.7112427568419 420.2972848400733Q546.7112427568419 425.36961764061357 551.0240818760178 427.89222165371655Q555.3097962208595 430.44195044115406 566.6479518926556 430.44195044115406ZM565.6714600166158 362.68426415372164L565.6714600166158 362.68426415372164Q570.1470477817984 362.68426415372164 572.8052756665736 361.0025281449863Q575.4363787770144 359.34791691058547 576.7926174937363 356.120068764787Q578.1759809847929 352.91934539332306 578.6642269228128 348.22675943346485Q579.1524728608326 343.53417347360664 579.1524728608326 337.6752222173675L579.1524728608326 337.6752222173675Q579.1524728608326 331.81627096112834 578.6642269228128 327.04231067826674Q578.1759809847929 322.24122562107084 576.901116591074 318.8235040549313Q575.6262521973554 315.40578248879183 572.9951490869146 313.6426721570532Q570.364045976474 311.906686599649 565.8613334369568 311.906686599649L565.8613334369568 311.906686599649Q561.5756190921152 311.906686599649 558.727517786999 313.6426721570532Q555.9065412562171 315.40578248879183 554.5231777651608 318.6336306345902Q553.1669390484386 321.86147878038867 552.570194013081 326.63543906325015Q552.0005737520577 331.43652412044617 552.0005737520577 337.6752222173675L552.0005737520577 337.6752222173675Q552.0005737520577 342.93742843824884 552.4888196900777 347.5486400751038Q552.9770656280975 352.1327269376243 554.4418034421574 355.44194940642603Q555.9065412562171 358.7782966495622 558.6461434639957 360.7312804016419Q561.3586208974398 362.68426415372164 565.6714600166158 362.68426415372164ZM621.5213703712288 440.20686920155254L618.9716415837913 440.20686920155254L618.9716415837913 424.20325234423274Q626.5937031717692 424.20325234423274 631.0964157112862 423.49800821153724Q635.572003476469 422.81988885317617 637.5249872285488 420.97540419843426Q639.4779709806285 419.1037947693578 639.4779709806285 415.7945723005562L639.4779709806285 415.7945723005562Q639.4779709806285 414.03146196881744 638.1217322639063 407.9826372922373Q636.7654935471844 401.9338126156571 635.1922566357869 395.09836948337806L635.1922566357869 395.09836948337806L612.543070066529 298.9952940164553L633.6190197243893 298.9952940164553L648.8631429003449 383.38046697089976L663.5105210409426 298.9952940164553L684.6135954731374 298.9952940164553L657.6515697847035 418.12730289331796Q655.888459452965 426.3461095166534 651.1958734931068 431.120069799515Q646.530412307583 435.9211548567109 639.206723237284 438.06401202913173Q631.883034166985 440.20686920155254 621.5213703712288 440.20686920155254L621.5213703712288 440.20686920155254ZM717.217574223135 411.88860479639675L696.3314979856157 411.88860479639675L696.3314979856157 388.6426731917812L717.217574223135 388.6426731917812L717.217574223135 411.88860479639675Z " fill="maroon" transform="matrix(0.6831962196475846,0,0,0.6831962196475846,-25.836028437457124,45.95181759067067)"/><path d="M727.2487653790315 440.2482699554761L727.2487653790315 440.2482699554761Q725.3112653790315 440.2482699554761 722.9779320456983 440.01910328880945Q720.6445987123649 439.8107699554761 718.9987653790315 439.20660328880945L718.9987653790315 439.20660328880945L718.9987653790315 427.64410328880945Q719.7487653790315 427.8107699554761 721.1029320456983 427.95660328880945Q722.4570987123649 428.1024366221428 723.2070987123649 428.1024366221428L723.2070987123649 428.1024366221428Q726.6445987123649 428.1024366221428 728.6029320456983 426.7482699554761Q730.5612653790315 425.39410328880945 731.3737653790315 422.9982699554762Q732.2070987123649 420.6024366221428 732.2070987123649 417.6024366221428L732.2070987123649 417.6024366221428L732.2070987123649 331.64410328880945L748.2487653790315 331.64410328880945L748.2487653790315 419.2482699554762Q748.2487653790315 429.45660328880945 742.6237653790315 434.8524366221428Q736.9987653790315 440.2482699554761 727.2487653790315 440.2482699554761ZM748.3945987123649 318.74826995547613L732.2070987123649 318.74826995547613L732.2070987123649 301.95660328880945L748.3945987123649 301.95660328880945L748.3945987123649 318.74826995547613ZM780.4987653790315 418.3524366221428L764.4570987123649 418.3524366221428L764.4570987123649 331.64410328880945L780.4987653790315 331.64410328880945L780.4987653790315 340.20660328880945Q784.8529320456983 336.14410328880945 790.1029320456983 333.3107699554762Q795.3529320456983 330.45660328880945 801.6445987123649 330.45660328880945L801.6445987123649 330.45660328880945Q806.8945987123649 330.45660328880945 809.6862653790315 333.14410328880945Q812.4570987123649 335.8524366221428 813.5820987123649 339.89410328880945Q814.7070987123649 343.95660328880945 814.7070987123649 348.14410328880945L814.7070987123649 348.14410328880945L814.7070987123649 418.3524366221428L798.6445987123649 418.3524366221428L798.6445987123649 352.8107699554762Q798.6445987123649 348.14410328880945 797.3112653790315 345.6024366221428Q795.9570987123649 343.0607699554762 791.7487653790315 343.0607699554762L791.7487653790315 343.0607699554762Q789.0612653790315 343.0607699554762 786.1237653790315 344.6232699554762Q783.2070987123649 346.20660328880945 780.4987653790315 348.45660328880945L780.4987653790315 348.45660328880945L780.4987653790315 418.3524366221428ZM845.8945987123649 419.5607699554762L845.8945987123649 419.5607699554762Q840.8112653790315 419.5607699554762 836.8945987123649 416.6232699554762Q832.9987653790315 413.70660328880945 830.7487653790315 409.1232699554762Q828.4987653790315 404.5607699554762 828.4987653790315 399.45660328880945L828.4987653790315 399.45660328880945Q828.4987653790315 391.3524366221428 831.2070987123649 385.8107699554762Q833.8945987123649 380.2482699554762 838.6237653790315 376.4357699554761Q843.3529320456983 372.6024366221428 849.5820987123649 369.7482699554762Q855.8112653790315 366.89410328880945 862.7070987123649 364.20660328880945L862.7070987123649 364.20660328880945L862.7070987123649 358.0607699554762Q862.7070987123649 352.8107699554762 862.1029320456983 349.3524366221428Q861.4987653790315 345.89410328880945 859.6237653790315 344.1857699554762Q857.7487653790315 342.45660328880945 853.9987653790316 342.45660328880945L853.9987653790316 342.45660328880945Q850.7070987123649 342.45660328880945 848.6862653790315 343.95660328880945Q846.6445987123649 345.45660328880945 845.7487653790315 348.2274366221428Q844.8529320456983 350.9982699554762 844.8529320456983 354.7482699554762L844.8529320456983 354.7482699554762L844.8529320456983 359.1024366221428L828.9570987123649 358.4982699554762Q829.2487653790315 344.1024366221428 835.5612653790315 337.26910328880945Q841.8529320456983 330.45660328880945 855.0612653790315 330.45660328880945L855.0612653790315 330.45660328880945Q867.9570987123649 330.45660328880945 873.3529320456983 337.4982699554761Q878.7487653790315 344.5607699554761 878.7487653790315 357.89410328880945L878.7487653790315 357.89410328880945L878.7487653790315 397.4982699554762Q878.7487653790315 401.5607699554762 878.9779320456983 405.3107699554762Q879.2070987123649 409.0607699554762 879.5820987123649 412.26910328880945Q879.9570987123649 415.4982699554762 880.2487653790315 418.3524366221428L880.2487653790315 418.3524366221428L865.5612653790315 418.3524366221428Q865.1029320456983 415.95660328880945 864.4362653790315 412.26910328880945Q863.7487653790315 408.6024366221428 863.4570987123649 405.6024366221428L863.4570987123649 405.6024366221428Q861.9570987123649 410.70660328880945 857.6862653790315 415.1232699554762Q853.3945987123649 419.5607699554762 845.8945987123649 419.5607699554762ZM852.2070987123649 405.7482699554762L852.2070987123649 405.7482699554762Q854.6029320456983 405.7482699554762 856.7070987123649 404.39410328880945Q858.8112653790315 403.0607699554761 860.4570987123649 401.33160328880945Q862.1029320456983 399.6024366221428 862.7070987123649 398.5607699554762L862.7070987123649 398.5607699554762L862.7070987123649 373.95660328880945Q858.9570987123649 376.0607699554762 855.6445987123649 378.14410328880945Q852.3529320456983 380.2482699554762 849.8737653790315 382.58160328880945Q847.3945987123649 384.89410328880945 845.9779320456983 387.83160328880945Q844.5612653790315 390.7482699554762 844.5612653790315 394.4982699554762L844.5612653790315 394.4982699554762Q844.5612653790315 399.7482699554762 846.4987653790315 402.7482699554762Q848.4570987123649 405.7482699554762 852.2070987123649 405.7482699554762ZM910.2487653790316 446.8524366221428L894.2070987123649 446.8524366221428L894.2070987123649 331.64410328880945L910.2487653790316 331.64410328880945L910.2487653790316 338.5607699554762Q913.1029320456983 335.2482699554762 917.1445987123649 332.8524366221428Q921.2070987123649 330.45660328880945 926.7487653790315 330.45660328880945L926.7487653790315 330.45660328880945Q933.4987653790316 330.45660328880945 937.4779320456983 333.9774366221428Q941.4570987123649 337.4982699554761 943.3945987123649 342.83160328880945Q945.3529320456983 348.14410328880945 945.9570987123649 353.6232699554762Q946.5612653790315 359.1024366221428 946.5612653790315 362.9982699554762L946.5612653790315 362.9982699554762L946.5612653790315 383.9982699554762Q946.5612653790315 393.14410328880945 944.7487653790315 401.33160328880945Q942.9570987123649 409.4982699554762 938.2279320456983 414.51910328880945Q933.4987653790316 419.5607699554762 924.9570987123649 419.5607699554762L924.9570987123649 419.5607699554762Q920.3112653790316 419.5607699554762 916.7070987123649 417.2274366221428Q913.1029320456983 414.89410328880945 910.2487653790316 411.89410328880945L910.2487653790316 411.89410328880945L910.2487653790316 446.8524366221428ZM921.8112653790316 406.95660328880945L921.8112653790316 406.95660328880945Q925.9987653790315 406.95660328880945 927.8112653790315 403.8732699554762Q929.6029320456983 400.8107699554762 930.0612653790315 395.5607699554762Q930.4987653790316 390.3107699554762 930.4987653790316 383.9982699554762L930.4987653790316 383.9982699554762L930.4987653790316 362.9982699554762Q930.4987653790316 357.6024366221428 929.8945987123649 353.01910328880945Q929.3112653790315 348.45660328880945 927.3529320456983 345.7482699554762Q925.3945987123649 343.0607699554762 921.2070987123649 343.0607699554762L921.2070987123649 343.0607699554762Q918.0612653790316 343.0607699554762 915.2070987123649 344.39410328880945Q912.3529320456983 345.7482699554762 910.2487653790316 347.5607699554762L910.2487653790316 347.5607699554762L910.2487653790316 403.0607699554761Q912.4987653790316 404.70660328880945 915.3529320456983 405.83160328880945Q918.2070987123649 406.95660328880945 921.8112653790316 406.95660328880945ZM984.957098712365 419.5607699554762L984.957098712365 419.5607699554762Q975.3529320456983 419.5607699554762 969.8112653790315 415.64410328880945Q964.2487653790315 411.7482699554762 961.9362653790315 404.5607699554762Q959.6029320456983 397.3524366221428 959.6029320456983 387.6024366221428L959.6029320456983 387.6024366221428L959.6029320456983 362.39410328880945Q959.6029320456983 352.64410328880945 961.9362653790315 345.45660328880945Q964.2487653790315 338.2482699554761 969.8112653790315 334.3524366221428Q975.3529320456983 330.45660328880945 984.957098712365 330.45660328880945L984.957098712365 330.45660328880945Q994.5612653790316 330.45660328880945 1000.019598712365 334.3524366221428Q1005.4987653790316 338.2482699554761 1007.832098712365 345.45660328880945Q1010.144598712365 352.64410328880945 1010.144598712365 362.39410328880945L1010.144598712365 362.39410328880945L1010.144598712365 387.6024366221428Q1010.144598712365 397.3524366221428 1007.832098712365 404.5607699554762Q1005.4987653790316 411.7482699554762 1000.019598712365 415.64410328880945Q994.5612653790316 419.5607699554762 984.957098712365 419.5607699554762ZM984.957098712365 407.70660328880945L984.957098712365 407.70660328880945Q989.6029320456983 407.70660328880945 991.4779320456983 404.9982699554762Q993.3529320456983 402.3107699554762 993.7279320456983 397.8732699554762Q994.1029320456983 393.45660328880945 994.1029320456983 388.64410328880945L994.1029320456983 388.64410328880945L994.1029320456983 361.4982699554762Q994.1029320456983 356.5607699554762 993.7279320456983 352.20660328880945Q993.3529320456983 347.8524366221428 991.4779320456983 345.08160328880945Q989.6029320456983 342.3107699554762 984.957098712365 342.3107699554762L984.957098712365 342.3107699554762Q980.3112653790315 342.3107699554762 978.3529320456983 345.08160328880945Q976.394598712365 347.8524366221428 976.019598712365 352.20660328880945Q975.644598712365 356.5607699554762 975.644598712365 361.4982699554762L975.644598712365 361.4982699554762L975.644598712365 388.64410328880945Q975.644598712365 393.45660328880945 976.019598712365 397.8732699554762Q976.394598712365 402.3107699554762 978.3529320456983 404.9982699554762Q980.3112653790315 407.70660328880945 984.957098712365 407.70660328880945ZM1042.394598712365 418.3524366221428L1026.3529320456983 418.3524366221428L1026.3529320456983 296.8524366221428L1042.394598712365 296.8524366221428L1042.394598712365 418.3524366221428ZM1076.3112653790315 418.3524366221428L1060.2487653790317 418.3524366221428L1060.2487653790317 331.64410328880945L1076.3112653790315 331.64410328880945L1076.3112653790315 418.3524366221428ZM1076.3112653790315 318.74826995547613L1060.2487653790317 318.74826995547613L1060.2487653790317 301.95660328880945L1076.3112653790315 301.95660328880945L1076.3112653790315 318.74826995547613ZM1116.644598712365 419.5607699554762L1116.644598712365 419.5607699554762Q1109.894598712365 419.5607699554762 1105.769598712365 416.9982699554762Q1101.644598712365 414.45660328880945 1099.769598712365 409.8107699554762Q1097.894598712365 405.14410328880945 1097.894598712365 398.8524366221428L1097.894598712365 398.8524366221428L1097.894598712365 342.3107699554762L1088.7487653790317 342.3107699554762L1088.7487653790317 331.64410328880945L1097.894598712365 331.64410328880945L1097.894598712365 306.31076995547613L1113.957098712365 306.31076995547613L1113.957098712365 331.64410328880945L1127.894598712365 331.64410328880945L1127.894598712365 342.3107699554762L1113.957098712365 342.3107699554762L1113.957098712365 397.8107699554762Q1113.957098712365 402.89410328880945 1115.6029320456983 405.08160328880945Q1117.2487653790315 407.2482699554762 1121.894598712365 407.2482699554762L1121.894598712365 407.2482699554762Q1123.1029320456983 407.2482699554762 1124.6862653790317 407.1024366221428Q1126.2487653790317 406.95660328880945 1127.7487653790317 406.8107699554762L1127.7487653790317 406.8107699554762L1127.7487653790317 418.64410328880945Q1124.7487653790315 419.1024366221428 1122.207098712365 419.33160328880945Q1119.644598712365 419.5607699554762 1116.644598712365 419.5607699554762ZM1155.3529320456983 419.5607699554762L1155.3529320456983 419.5607699554762Q1150.2487653790317 419.5607699554762 1146.3529320456983 416.6232699554762Q1142.457098712365 413.70660328880945 1140.207098712365 409.1232699554762Q1137.957098712365 404.5607699554762 1137.957098712365 399.45660328880945L1137.957098712365 399.45660328880945Q1137.957098712365 391.3524366221428 1140.644598712365 385.8107699554762Q1143.3529320456983 380.2482699554762 1148.082098712365 376.4357699554761Q1152.8112653790317 372.6024366221428 1159.019598712365 369.7482699554762Q1165.2487653790317 366.89410328880945 1172.144598712365 364.20660328880945L1172.144598712365 364.20660328880945L1172.144598712365 358.0607699554762Q1172.144598712365 352.8107699554762 1171.5612653790317 349.3524366221428Q1170.957098712365 345.89410328880945 1169.082098712365 344.1857699554762Q1167.207098712365 342.45660328880945 1163.457098712365 342.45660328880945L1163.457098712365 342.45660328880945Q1160.144598712365 342.45660328880945 1158.1237653790317 343.95660328880945Q1156.1029320456983 345.45660328880945 1155.207098712365 348.2274366221428Q1154.3112653790317 350.9982699554762 1154.3112653790317 354.7482699554762L1154.3112653790317 354.7482699554762L1154.3112653790317 359.1024366221428L1138.394598712365 358.4982699554762Q1138.707098712365 344.1024366221428 1144.9987653790317 337.26910328880945Q1151.3112653790315 330.45660328880945 1164.4987653790317 330.45660328880945L1164.4987653790317 330.45660328880945Q1177.394598712365 330.45660328880945 1182.8112653790317 337.4982699554761Q1188.207098712365 344.5607699554761 1188.207098712365 357.89410328880945L1188.207098712365 357.89410328880945L1188.207098712365 397.4982699554762Q1188.207098712365 401.5607699554762 1188.4362653790317 405.3107699554762Q1188.644598712365 409.0607699554762 1189.019598712365 412.26910328880945Q1189.394598712365 415.4982699554762 1189.707098712365 418.3524366221428L1189.707098712365 418.3524366221428L1174.9987653790317 418.3524366221428Q1174.5612653790317 415.95660328880945 1173.8737653790317 412.26910328880945Q1173.207098712365 408.6024366221428 1172.894598712365 405.6024366221428L1172.894598712365 405.6024366221428Q1171.394598712365 410.70660328880945 1167.1237653790315 415.1232699554762Q1162.8529320456983 419.5607699554762 1155.3529320456983 419.5607699554762ZM1161.644598712365 405.7482699554762L1161.644598712365 405.7482699554762Q1164.0612653790315 405.7482699554762 1166.144598712365 404.39410328880945Q1168.2487653790317 403.0607699554761 1169.894598712365 401.33160328880945Q1171.5612653790317 399.6024366221428 1172.144598712365 398.5607699554762L1172.144598712365 398.5607699554762L1172.144598712365 373.95660328880945Q1168.394598712365 376.0607699554762 1165.1029320456983 378.14410328880945Q1161.8112653790317 380.2482699554762 1159.332098712365 382.58160328880945Q1156.8529320456983 384.89410328880945 1155.4362653790317 387.83160328880945Q1153.9987653790317 390.7482699554762 1153.9987653790317 394.4982699554762L1153.9987653790317 394.4982699554762Q1153.9987653790317 399.7482699554762 1155.957098712365 402.7482699554762Q1157.894598712365 405.7482699554762 1161.644598712365 405.7482699554762ZM1219.707098712365 418.3524366221428L1203.644598712365 418.3524366221428L1203.644598712365 331.64410328880945L1219.707098712365 331.64410328880945L1219.707098712365 340.20660328880945Q1224.0612653790317 336.14410328880945 1229.3112653790317 333.3107699554762Q1234.5612653790317 330.45660328880945 1240.8529320456983 330.45660328880945L1240.8529320456983 330.45660328880945Q1246.1029320456983 330.45660328880945 1248.8737653790317 333.14410328880945Q1251.644598712365 335.8524366221428 1252.769598712365 339.89410328880945Q1253.8945987123648 343.95660328880945 1253.8945987123648 348.14410328880945L1253.8945987123648 348.14410328880945L1253.8945987123648 418.3524366221428L1237.8529320456983 418.3524366221428L1237.8529320456983 352.8107699554762Q1237.8529320456983 348.14410328880945 1236.4987653790317 345.6024366221428Q1235.1445987123648 343.0607699554762 1230.957098712365 343.0607699554762L1230.957098712365 343.0607699554762Q1228.2487653790317 343.0607699554762 1225.332098712365 344.6232699554762Q1222.394598712365 346.20660328880945 1219.707098712365 348.45660328880945L1219.707098712365 348.45660328880945L1219.707098712365 418.3524366221428ZM1293.3529320456983 419.5607699554762L1293.3529320456983 419.5607699554762Q1283.7487653790317 419.5607699554762 1278.207098712365 415.64410328880945Q1272.6445987123648 411.7482699554762 1270.3320987123648 404.5607699554762Q1267.9987653790317 397.3524366221428 1267.9987653790317 387.6024366221428L1267.9987653790317 387.6024366221428L1267.9987653790317 362.39410328880945Q1267.9987653790317 352.64410328880945 1270.3320987123648 345.45660328880945Q1272.6445987123648 338.2482699554761 1278.207098712365 334.3524366221428Q1283.7487653790317 330.45660328880945 1293.3529320456983 330.45660328880945L1293.3529320456983 330.45660328880945Q1302.957098712365 330.45660328880945 1308.4362653790317 334.3524366221428Q1313.894598712365 338.2482699554761 1316.2279320456983 345.45660328880945Q1318.5612653790317 352.64410328880945 1318.5612653790317 362.39410328880945L1318.5612653790317 362.39410328880945L1318.5612653790317 387.6024366221428Q1318.5612653790317 397.3524366221428 1316.2279320456983 404.5607699554762Q1313.894598712365 411.7482699554762 1308.4362653790317 415.64410328880945Q1302.957098712365 419.5607699554762 1293.3529320456983 419.5607699554762ZM1293.3529320456983 407.70660328880945L1293.3529320456983 407.70660328880945Q1297.9987653790317 407.70660328880945 1299.8737653790317 404.9982699554762Q1301.7487653790317 402.3107699554762 1302.1237653790315 397.8732699554762Q1302.4987653790317 393.45660328880945 1302.4987653790317 388.64410328880945L1302.4987653790317 388.64410328880945L1302.4987653790317 361.4982699554762Q1302.4987653790317 356.5607699554762 1302.1237653790315 352.20660328880945Q1301.7487653790317 347.8524366221428 1299.8737653790317 345.08160328880945Q1297.9987653790317 342.3107699554762 1293.3529320456983 342.3107699554762L1293.3529320456983 342.3107699554762Q1288.7070987123648 342.3107699554762 1286.7487653790317 345.08160328880945Q1284.8112653790317 347.8524366221428 1284.4362653790317 352.20660328880945Q1284.0612653790317 356.5607699554762 1284.0612653790317 361.4982699554762L1284.0612653790317 361.4982699554762L1284.0612653790317 388.64410328880945Q1284.0612653790317 393.45660328880945 1284.4362653790317 397.8732699554762Q1284.8112653790317 402.3107699554762 1286.7487653790317 404.9982699554762Q1288.7070987123648 407.70660328880945 1293.3529320456983 407.70660328880945Z " fill="maroon" transform="matrix(0.6831962196475846,0,0,0.6831962196475846,-25.836028437457124,45.95181759067067)"/></g></svg>