<svg xmlns="http://www.w3.org/2000/svg" version="1.1" xmlns:xlink="http://www.w3.org/1999/xlink" xmlns:svgjs="http://svgjs.dev/svgjs" width="100%" height="100%" viewBox="0 0 1000 600"><rect width="1000" height="600" x="0" y="0" fill="white"/><g><circle r="166.66666666666666" cx="558.3694254557291" cy="431.76372775704533" fill="white" transform="matrix(0.5146685133526909,0,0,0.5146685133526909,-37.17496186146623,77.78482939776477)"/><path d="M358.73495263640865 469.1658451094058L358.73495263640865 469.1658451094058Q348.7610617671676 469.1658451094058 340.7715052069902 465.6149310826603Q332.7819486468128 462.0379073939534 327.06393267727407 455.3538339318442Q321.319807045774 448.6958701316963 318.2127572723716 439.3747208114894Q315.1057074989693 430.07968115324377 315.1057074989693 418.40866225651405L315.1057074989693 418.40866225651405Q315.1057074989693 406.94652065547524 318.2127572723716 397.5470423493842Q321.319807045774 388.14756404329313 327.06393267727407 381.4896002431453Q332.7819486468128 374.80552678103606 340.7715052069902 371.2285030923292Q348.7610617671676 367.6514794036223 358.73495263640865 367.6514794036223L358.73495263640865 367.6514794036223Q368.4999662099588 367.6514794036223 376.2023164885612 371.2285030923292Q383.930776429125 374.80552678103606 389.3615861170887 381.0979553137248Q394.8185054670138 387.39038384641356 397.74278760668653 396.0587916175864Q400.640960084398 404.70108972679793 400.640960084398 415.04051586349806L400.640960084398 415.04051586349806L400.640960084398 422.16845357895045L330.9020529855946 422.16845357895045L330.9020529855946 426.6854250982665Q330.9020529855946 432.8995246450711 332.8863872946582 438.2520053471507Q334.84461194176055 443.60448604923033 338.5260742783129 447.54704500539634Q342.18142695290385 451.51571362352365 347.53390765498347 453.76114455220096Q352.9124980190245 456.00657548087827 359.6749004670178 456.00657548087827L359.6749004670178 456.00657548087827Q368.8916111393793 456.00657548087827 375.7323425732567 451.6984812572532Q382.5991836690954 447.3642773716668 386.35897499153185 439.29639182560527L386.35897499153185 439.29639182560527L397.09004605765244 446.9987421042077Q392.3903069046069 456.9465233114874 382.41641603536584 463.0561842104466Q372.44252516612477 469.1658451094058 358.73495263640865 469.1658451094058ZM358.73495263640865 380.26244613096117L358.73495263640865 380.26244613096117Q352.52085308960403 380.26244613096117 347.4555786690994 382.4295480737544Q342.3641945866334 384.5705403545862 338.70884191204243 388.5392089727136Q335.05348923745146 392.48176792887955 332.96471628054235 397.83424863095917Q330.9020529855946 403.1867293330388 330.9020529855946 409.583596513573L330.9020529855946 409.583596513573L330.9020529855946 410.8890796116412L384.4790793303136 410.8890796116412L384.4790793303136 408.82641631669344Q384.4790793303136 395.84991432189554 377.42947060074533 388.069235057409Q370.379861871177 380.26244613096117 358.73495263640865 380.26244613096117ZM440.5104138994009 466.92041418072847L425.47124860965516 466.92041418072847L425.47124860965516 369.92301999426104L440.5104138994009 369.92301999426104L440.5104138994009 385.71936548088627L441.26759409628045 385.71936548088627Q444.81850812302594 377.44260263913384 451.3198139514056 372.56009585235876Q457.79501011782384 367.6514794036223 468.70884881767404 367.6514794036223L468.70884881767404 367.6514794036223Q483.74801410741975 367.6514794036223 492.4947508644767 377.3381639912884Q501.21537795957227 387.02484857895445 501.21537795957227 404.70108972679793L501.21537795957227 404.70108972679793L501.21537795957227 466.92041418072847L486.17621266982667 466.92041418072847L486.17621266982667 407.3381655848957Q486.17621266982667 381.2023939615703 464.19187729835807 381.2023939615703L464.19187729835807 381.2023939615703Q459.6749057790421 381.2023939615703 455.44514054130116 382.3251094259089Q451.2153753035601 383.4478248902476 447.8472289105442 385.71936548088627Q444.4529728555668 387.9647964095636 442.46863854650314 391.437381450425Q440.5104138994009 394.9099664912864 440.5104138994009 399.60970564433194L440.5104138994009 399.60970564433194L440.5104138994009 466.92041418072847ZM547.2728216594185 466.92041418072847L532.2336563696729 466.92041418072847L532.2336563696729 369.92301999426104L547.2728216594185 369.92301999426104L547.2728216594185 387.782028775834L548.2127694900275 387.782028775834Q550.8498453481254 380.81074903214983 557.6122477961187 375.3799393441861Q564.4007599060733 369.92301999426104 576.2284367745713 369.92301999426104L576.2284367745713 369.92301999426104L582.0508913919555 369.92301999426104L582.0508913919555 384.9621852840067L573.2258256490144 384.9621852840067Q561.006503851096 384.9621852840067 554.1396627552573 389.5574857892068Q547.2728216594185 394.1788959563682 547.2728216594185 401.12406603809103L547.2728216594185 401.12406603809103L547.2728216594185 466.92041418072847ZM678.6827503109637 477.6253755848877L678.6827503109637 477.6253755848877Q678.6827503109637 492.6645408746334 666.9334024283501 499.7141496042017Q655.1840545457362 506.76375833377 631.6853587805084 506.76375833377L631.6853587805084 506.76375833377Q608.9438432121605 506.76375833377 598.9699523429193 500.57576844892674Q589.0221711356396 494.3616689021221 589.0221711356396 482.89952730108325L589.0221711356396 482.89952730108325Q589.0221711356396 475.01440938875135 593.1474977255351 470.57576685531944Q597.298933977392 466.1632339838489 604.4268716928444 464.10057068890114L604.4268716928444 464.10057068890114L604.4268716928444 462.0379073939534Q595.7845735836329 457.8864711420965 595.7845735836329 448.48699283600547L595.7845735836329 448.48699283600547Q595.7845735836329 441.1762874868235 600.4843127366785 437.31205751654164Q605.184051889724 433.44782754625976 612.5208669008673 431.5679318850415L612.5208669008673 431.5679318850415L612.5208669008673 430.83686135012334Q603.8785687916558 426.6854250982665 599.0743909907648 418.98307481966407Q594.2702131898737 411.28072454106166 594.2702131898737 401.12406603809103L594.2702131898737 401.12406603809103Q594.2702131898737 393.78725102694773 596.9072890479715 387.59926114210447Q599.5443649060693 381.3851615952998 604.3485427069603 376.9726287238293Q609.1266108458899 372.56009585235876 615.8106843079992 370.1057876279906Q622.4686481081469 367.6514794036223 630.7454109498993 367.6514794036223L630.7454109498993 367.6514794036223Q641.0848370865996 367.6514794036223 649.1788322946225 371.4112707260588L649.1788322946225 371.4112707260588L649.1788322946225 369.7402523605315Q649.1788322946225 364.10056537687683 651.8159081527201 360.4191030403245Q654.4268743488567 356.76375036573353 660.4582062619318 356.76375036573353L660.4582062619318 356.76375036573353L674.9229589885274 356.76375036573353L674.9229589885274 369.92301999426104L656.5156473057657 369.92301999426104L656.5156473057657 376.11100987910424Q661.76368936 380.6279813984203 664.6879714996726 386.920409931109Q667.5861439773842 393.2389481257591 667.5861439773842 401.12406603809103L667.5861439773842 401.12406603809103Q667.5861439773842 408.46088104923433 664.9751777812476 414.64887093407765Q662.3381019231499 420.86297048088227 657.5339241222589 425.2755033523528Q652.7558559833292 429.6880362238233 645.9673438733746 432.1423444481915Q639.2049414253813 434.5966526725598 630.928178583629 434.5966526725598L630.928178583629 434.5966526725598Q626.2284394305834 434.5966526725598 621.5287002775378 433.65670484195067L621.5287002775378 433.65670484195067Q616.6461934907628 434.96218794001885 612.7036345345969 437.49482515027114Q608.7610755784308 440.0274623605235 608.7610755784308 444.54443387983946L608.7610755784308 444.54443387983946Q608.7610755784308 448.87863776542594 612.8864021683264 450.3668884972236Q617.0378384201832 451.88124889098276 623.617473234447 451.88124889098276L623.617473234447 451.88124889098276L644.2963255078473 451.88124889098276Q662.3381019231499 451.88124889098276 670.5104261170568 458.7480899868215Q678.6827503109637 465.6149310826603 678.6827503109637 477.6253755848877ZM664.5835328518272 478.77420071118775L664.5835328518272 478.77420071118775Q664.5835328518272 472.9256364318422 660.1709999803566 469.45305139098076Q655.7584671088862 465.98046635011934 644.4790931415769 465.98046635011934L644.4790931415769 465.98046635011934L612.1292219714468 465.98046635011934Q603.1213885947762 470.1057929400149 603.1213885947762 479.13973597864685L603.1213885947762 479.13973597864685Q603.1213885947762 485.536603159181 607.8994567337058 490.053574678497Q612.7036345345969 494.5444365358517 624.1657761356356 494.5444365358517L624.1657761356356 494.5444365358517L638.0822259610427 494.5444365358517Q650.6670830264202 494.5444365358517 657.6383627701043 490.60187757968566Q664.5835328518272 486.65931862351965 664.5835328518272 478.77420071118775ZM630.928178583629 422.56009850837097L630.928178583629 422.56009850837097Q640.5365341854109 422.56009850837097 646.1762211690656 417.9386883412095Q651.8159081527201 413.3433878360094 651.8159081527201 403.7611418961888L651.8159081527201 403.7611418961888L651.8159081527201 398.48699017999326Q651.8159081527201 388.9047442401727 646.1762211690656 384.3094437349726Q640.5365341854109 379.6880335678112 630.928178583629 379.6880335678112L630.928178583629 379.6880335678112Q621.3459326438083 379.6880335678112 615.7062456601537 384.3094437349726Q610.0665586764991 388.9047442401727 610.0665586764991 398.48699017999326L610.0665586764991 398.48699017999326L610.0665586764991 403.7611418961888Q610.0665586764991 413.3433878360094 615.7062456601537 417.9386883412095Q621.3459326438083 422.56009850837097 630.928178583629 422.56009850837097ZM733.3824921200217 435.902135770628L756.8811878852491 369.92301999426104L771.7375855412654 369.92301999426104L728.3172176995167 489.479162115347Q726.6200896720281 493.81336600093346 724.9229616445396 496.7115384786448Q723.2519432790123 499.6358206183176 720.7976350546439 501.33294864580625Q718.3433268302758 503.00396701133354 714.6879741556847 503.7611472082132Q711.0326214810939 504.5183274050927 705.7584697648983 504.5183274050927L705.7584697648983 504.5183274050927L698.056119486296 504.5183274050927L698.056119486296 491.35905777656524L713.2780524097711 491.35905777656524L720.6148674209144 470.68020550316487L684.3224372946183 369.92301999426104L699.3616025843642 369.92301999426104L722.6775307158621 435.902135770628L727.1945022351781 451.6984812572532L728.1344500657872 451.6984812572532L733.3824921200217 435.902135770628ZM790.1710068859884 469.1658451094058L790.1710068859884 469.1658451094058Q784.1396749729133 469.1658451094058 781.4242701289313 466.1632339838489Q778.7088652849495 463.1606228582921 778.7088652849495 458.27811607151693L778.7088652849495 458.27811607151693L778.7088652849495 455.8238078471487Q778.7088652849495 450.9413010603737 781.4242701289313 447.9386899348168Q784.1396749729133 444.9360788092599 790.1710068859884 444.9360788092599L790.1710068859884 444.9360788092599Q796.1762291371022 444.9360788092599 798.9177436430452 447.9386899348168Q801.633148487027 450.9413010603737 801.633148487027 455.8238078471487L801.633148487027 455.8238078471487L801.633148487027 458.27811607151693Q801.633148487027 463.1606228582921 798.9177436430452 466.1632339838489Q796.1762291371022 469.1658451094058 790.1710068859884 469.1658451094058Z " fill="maroon" transform="matrix(0.5146685133526909,0,0,0.5146685133526909,-37.17496186146623,77.78482939776477)"/><path d="M821.7781130837977 495.59353785393625L821.7781130837977 392.51286455987196L834.5440704730433 392.51286455987196L834.5440704730433 487.6148144856578Q834.5440704730433 496.23626834749206 830.24442510236 501.4889278982754Q825.9226166112092 506.7637505695261 816.6805953762865 506.7637505695261L816.6805953762865 506.7637505695261L808.3694252009965 506.7637505695261L808.3694252009965 495.59353785393625L821.7781130837977 495.59353785393625ZM828.1610917784205 373.2087866327315L828.1610917784205 373.2087866327315Q824.0165882510092 373.2087866327315 822.1770492522116 371.2141057906619Q820.3375102534142 369.2194249485923 820.3375102534142 366.0279356012809L820.3375102534142 366.0279356012809L820.3375102534142 363.9446022773415Q820.3375102534142 360.75311293003017 822.1770492522116 358.7584320879605Q824.0165882510092 356.7637512458909 828.1610917784205 356.7637512458909L828.1610917784205 356.7637512458909Q832.305595305832 356.7637512458909 834.1451343046294 358.7584320879605Q835.9846733034269 360.75311293003017 835.9846733034269 363.9446022773415L835.9846733034269 363.9446022773415L835.9846733034269 366.0279356012809Q835.9846733034269 369.2194249485923 834.1451343046294 371.2141057906619Q832.305595305832 373.2087866327315 828.1610917784205 373.2087866327315ZM874.4376873144357 474.84885709641225L861.6717299251902 474.84885709641225L861.6717299251902 392.51286455987196L874.4376873144357 392.51286455987196L874.4376873144357 405.92155244267326L875.0804178079915 405.92155244267326Q878.1167653120308 398.8958432544947 883.613219187956 394.7513397270834Q889.1096730638811 390.5846730792046 898.3738574192712 390.5846730792046L898.3738574192712 390.5846730792046Q911.1398148085167 390.5846730792046 918.5644601651092 398.80719077262495Q925.9891055217016 407.02970846604524 925.9891055217016 422.03414102250224L925.9891055217016 422.03414102250224L925.9891055217016 474.84885709641225L913.2231481324561 474.84885709641225L913.2231481324561 424.27261618971374Q913.2231481324561 402.0873326018061 894.5396375784039 402.0873326018061L894.5396375784039 402.0873326018061Q890.7054177375368 402.0873326018061 887.1149922218115 403.040346781906Q883.5245667060861 403.99336096200597 880.6655241657863 405.92155244267326Q877.7843185050192 407.8275808028731 876.1220844699611 410.7752758250426Q874.4376873144357 413.7229708472122 874.4376873144357 417.7123325313514L874.4376873144357 417.7123325313514L874.4376873144357 474.84885709641225ZM1019.3401689305597 474.84885709641225L1012.159317899109 474.84885709641225Q1004.9784668676584 474.84885709641225 1001.8534668817493 471.0146372555451Q998.7506300163077 467.18041741467795 997.9527576794799 461.44016921361094L997.9527576794799 461.44016921361094L997.154885342652 461.44016921361094Q994.428821525157 469.10860889534524 988.2231477942737 472.9428287362124Q981.995310942923 476.7548854566121 973.3738570810888 476.7548854566121L973.3738570810888 476.7548854566121Q960.297616005299 476.7548854566121 953.0281124919786 470.0616230754452Q945.7586089786582 463.36836069427824 945.7586089786582 451.8657011716768L945.7586089786582 451.8657011716768Q945.7586089786582 440.23006292627065 954.3135734790901 434.00222607492Q962.8463748590547 427.7743892235693 980.8649917990836 427.7743892235693L980.8649917990836 427.7743892235693L997.154885342652 427.7743892235693L997.154885342652 419.6405240120187Q997.154885342652 410.8639283069124 992.367651321685 406.2318361292174Q987.580417300718 401.59974395152244 977.6735024517722 401.59974395152244L977.6735024517722 401.59974395152244Q970.1823677337774 401.59974395152244 965.1513393876685 404.94637514210586Q960.1203110415595 408.3151694531568 956.773679850976 413.9002758109517L956.773679850976 413.9002758109517L949.1274032897092 406.7194247795011Q952.4740344802926 400.0039992778667 959.8100273550153 395.3054177387694Q967.146020229738 390.5846730792046 978.3162329453279 390.5846730792046L978.3162329453279 390.5846730792046Q993.3206655017849 390.5846730792046 1001.6096725566076 397.94282907439475Q1009.9208427318977 405.2788219491175 1009.9208427318977 418.3550630249072L1009.9208427318977 418.3550630249072L1009.9208427318977 463.6786443808224L1019.3401689305597 463.6786443808224L1019.3401689305597 474.84885709641225ZM975.4571904050281 465.91711954803384L975.4571904050281 465.91711954803384Q980.2444244259952 465.91711954803384 984.2337861101344 464.7868004041944Q988.2231477942737 463.6786443808224 991.0821903345735 461.595311056883Q993.9633959953406 459.5341408534111 995.5591406689964 456.80807703591597Q997.154885342652 454.10417633888824 997.154885342652 450.91268699157683L997.154885342652 450.91268699157683L997.154885342652 437.34885726550345L980.2444244259952 437.34885726550345Q969.2293535536774 437.34885726550345 964.1983252075685 440.5403466128148Q959.1672968614596 443.7318359601262 959.1672968614596 449.80453096820486L959.1672968614596 449.80453096820486L959.1672968614596 453.15116215878834Q959.1672968614596 459.2016940463995 963.5555947140127 462.57048835745036Q967.9438925665659 465.91711954803384 975.4571904050281 465.91711954803384ZM1037.5139277138605 506.7637505695261L1037.5139277138605 392.51286455987196L1050.2798851031062 392.51286455987196L1050.2798851031062 405.92155244267326L1050.9226155966621 405.92155244267326Q1054.1141049439734 398.0979709176669 1060.2532893134544 394.3524035586695Q1066.4146368034026 390.5846730792046 1075.0139275447696 390.5846730792046L1075.0139275447696 390.5846730792046Q1082.6823672265039 390.5846730792046 1088.9102040778544 393.62102058324393Q1095.138040929205 396.65736808728326 1099.5263387817583 402.2424744450782Q1103.9146366343116 407.8275808028731 1106.2196011629253 415.80630417115157Q1108.524565691539 423.7850275394301 1108.524565691539 433.6697792679084L1108.524565691539 433.6697792679084Q1108.524565691539 443.5766941168541 1106.2196011629253 451.5554174851326Q1103.9146366343116 459.5341408534111 1099.5263387817583 465.119247211206Q1095.138040929205 470.70435356900094 1088.9102040778544 473.7407010730402Q1082.6823672265039 476.7548854566121 1075.0139275447696 476.7548854566121L1075.0139275447696 476.7548854566121Q1058.2586084713848 476.7548854566121 1050.9226155966621 461.44016921361094L1050.9226155966621 461.44016921361094L1050.2798851031062 461.44016921361094L1050.2798851031062 506.7637505695261L1037.5139277138605 506.7637505695261ZM1071.512154510914 465.2743890544781L1071.512154510914 465.2743890544781Q1082.3720835399597 465.2743890544781 1088.577757270843 458.4924741914414Q1094.8055941221937 451.7105593284047 1094.8055941221937 440.69548845608693L1094.8055941221937 440.69548845608693L1094.8055941221937 426.66623320019727Q1094.8055941221937 415.6511623278795 1088.577757270843 408.86924746484283Q1082.3720835399597 402.0873326018061 1071.512154510914 402.0873326018061L1071.512154510914 402.0873326018061Q1067.2125091402304 402.0873326018061 1063.2896368174936 403.28414110704784Q1059.388927615224 404.48094961228963 1056.5077219544569 406.54211981576157Q1053.648679414157 408.62545313970094 1051.9642822586316 411.5731481618705Q1050.2798851031062 414.52084318404 1050.2798851031062 417.88963749509094L1050.2798851031062 417.88963749509094L1050.2798851031062 448.5190699810933Q1050.2798851031062 452.50843166523254 1051.9642822586316 455.6112685306742Q1053.648679414157 458.73626851658327 1056.5077219544569 460.88609120192496Q1059.388927615224 463.03591388726664 1063.2896368174936 464.1662330311061Q1067.2125091402304 465.2743890544781 1071.512154510914 465.2743890544781ZM1161.1841399221769 476.7548854566121L1161.1841399221769 476.7548854566121Q1152.8951328673543 476.7548854566121 1146.0245655224478 473.7407010730402Q1139.176161298009 470.70435356900094 1134.300274795172 465.03059472933626Q1129.4465514128026 459.37899901013895 1126.7204875953075 451.4667650032628Q1124.0165868982797 443.5766941168541 1124.0165868982797 433.6697792679084L1124.0165868982797 433.6697792679084Q1124.0165868982797 423.94016938270215 1126.7204875953075 415.96144601442364Q1129.4465514128026 407.9827226461452 1134.300274795172 402.33112692694795Q1139.176161298009 396.65736808728326 1146.0245655224478 393.62102058324393Q1152.8951328673543 390.5846730792046 1161.1841399221769 390.5846730792046L1161.1841399221769 390.5846730792046Q1169.4953100974672 390.5846730792046 1176.2772249605036 393.62102058324393Q1183.0591398235404 396.65736808728326 1188.0015156877796 402.33112692694795Q1192.9438915520188 407.9827226461452 1195.669955369514 415.96144601442364Q1198.3738560665415 423.94016938270215 1198.3738560665415 433.6697792679084L1198.3738560665415 433.6697792679084Q1198.3738560665415 443.5766941168541 1195.669955369514 451.4667650032628Q1192.9438915520188 459.37899901013895 1188.0015156877796 465.03059472933626Q1183.0591398235404 470.70435356900094 1176.2772249605036 473.7407010730402Q1169.4953100974672 476.7548854566121 1161.1841399221769 476.7548854566121ZM1161.1841399221769 465.42953089775017L1161.1841399221769 465.42953089775017Q1171.556480300939 465.42953089775017 1178.1167639593014 459.0465522031274Q1184.6548844971962 452.6635735085046 1184.6548844971962 439.5873324327149L1184.6548844971962 439.5873324327149L1184.6548844971962 427.7743892235693Q1184.6548844971962 414.6981481477796 1178.1167639593014 408.3151694531568Q1171.556480300939 401.93219075853403 1161.1841399221769 401.93219075853403L1161.1841399221769 401.93219075853403Q1150.811799543415 401.93219075853403 1144.27367900552 408.3151694531568Q1137.7355584676252 414.6981481477796 1137.7355584676252 427.7743892235693L1137.7355584676252 427.7743892235693L1137.7355584676252 439.5873324327149Q1137.7355584676252 452.6635735085046 1144.27367900552 459.0465522031274Q1150.811799543415 465.42953089775017 1161.1841399221769 465.42953089775017ZM1244.3401679160127 474.84885709641225L1232.9926502366832 474.84885709641225Q1226.2993878555162 474.84885709641225 1222.864104183063 471.10328973741485Q1219.4288205106097 467.35772237841746 1219.4288205106097 461.595311056883L1219.4288205106097 461.595311056883L1219.4288205106097 356.7637512458909L1232.1947778998554 356.7637512458909L1232.1947778998554 463.6786443808224L1244.3401679160127 463.6786443808224L1244.3401679160127 474.84885709641225ZM1269.229352200948 373.2087866327315L1269.229352200948 373.2087866327315Q1265.0848486735365 373.2087866327315 1263.245309674739 371.2141057906619Q1261.4057706759415 369.2194249485923 1261.4057706759415 366.0279356012809L1261.4057706759415 366.0279356012809L1261.4057706759415 363.9446022773415Q1261.4057706759415 360.75311293003017 1263.245309674739 358.7584320879605Q1265.0848486735365 356.7637512458909 1269.229352200948 356.7637512458909L1269.229352200948 356.7637512458909Q1273.373855728359 356.7637512458909 1275.2133947271568 358.7584320879605Q1277.0529337259543 360.75311293003017 1277.0529337259543 363.9446022773415L1277.0529337259543 363.9446022773415L1277.0529337259543 366.0279356012809Q1277.0529337259543 369.2194249485923 1275.2133947271568 371.2141057906619Q1273.373855728359 373.2087866327315 1269.229352200948 373.2087866327315ZM1262.846373506325 474.84885709641225L1262.846373506325 392.51286455987196L1275.6123308955707 392.51286455987196L1275.6123308955707 474.84885709641225L1262.846373506325 474.84885709641225ZM1336.8933589880428 474.84885709641225L1320.935912251486 474.84885709641225Q1314.2204867498515 474.84885709641225 1310.7852030773984 471.10328973741485Q1307.3720825254125 467.35772237841746 1307.3720825254125 461.28502737033887L1307.3720825254125 461.28502737033887L1307.3720825254125 403.6830772754618L1293.8082527993392 403.6830772754618L1293.8082527993392 392.51286455987196L1301.454529360606 392.51286455987196Q1305.5990328880173 392.51286455987196 1307.1282882002706 390.8284674043465Q1308.6353803920565 389.1662333692885 1308.6353803920565 384.9995667214097L1308.6353803920565 384.9995667214097L1308.6353803920565 369.6848504784085L1320.138039914658 369.6848504784085L1320.138039914658 392.51286455987196L1338.1566568546868 392.51286455987196L1338.1566568546868 403.6830772754618L1320.138039914658 403.6830772754618L1320.138039914658 463.6786443808224L1336.8933589880428 463.6786443808224L1336.8933589880428 474.84885709641225ZM1425.767472062478 474.84885709641225L1418.5866210310273 474.84885709641225Q1411.405769999577 474.84885709641225 1408.3029331341352 471.0146372555451Q1405.1779331482262 467.18041741467795 1404.3800608113984 461.44016921361094L1404.3800608113984 461.44016921361094L1403.5821884745706 461.44016921361094Q1400.878287777543 469.10860889534524 1394.6504509261922 472.9428287362124Q1388.4226140748415 476.7548854566121 1379.801160213007 476.7548854566121L1379.801160213007 476.7548854566121Q1366.7249191372175 476.7548854566121 1359.455415623897 470.0616230754452Q1352.208075231044 463.36836069427824 1352.208075231044 451.8657011716768L1352.208075231044 451.8657011716768Q1352.208075231044 440.23006292627065 1360.7408766110084 434.00222607492Q1369.2736779909728 427.7743892235693 1387.3144580514693 427.7743892235693L1387.3144580514693 427.7743892235693L1403.5821884745706 427.7743892235693L1403.5821884745706 419.6405240120187Q1403.5821884745706 410.8639283069124 1398.7949544536034 406.2318361292174Q1394.0077204326362 401.59974395152244 1384.122968704158 401.59974395152244L1384.122968704158 401.59974395152244Q1376.6096708656955 401.59974395152244 1371.6008056400542 404.94637514210586Q1366.5697772939452 408.3151694531568 1363.2231461033616 413.9002758109517L1363.2231461033616 413.9002758109517L1355.5547064216275 406.7194247795011Q1358.9013376122111 400.0039992778667 1366.2373304869336 395.3054177387694Q1373.5954864821238 390.5846730792046 1384.7656991977137 390.5846730792046L1384.7656991977137 390.5846730792046Q1399.7479686337033 390.5846730792046 1408.0591388089933 397.94282907439475Q1416.348145863816 405.2788219491175 1416.348145863816 418.3550630249072L1416.348145863816 418.3550630249072L1416.348145863816 463.6786443808224L1425.767472062478 463.6786443808224L1425.767472062478 474.84885709641225ZM1381.8844935369464 465.91711954803384L1381.8844935369464 465.91711954803384Q1386.6717275579135 465.91711954803384 1390.6610892420529 464.7868004041944Q1394.6504509261922 463.6786443808224 1397.5316565869593 461.595311056883Q1400.390699127259 459.5341408534111 1401.986443800915 456.80807703591597Q1403.5821884745706 454.10417633888824 1403.5821884745706 450.91268699157683L1403.5821884745706 450.91268699157683L1403.5821884745706 437.34885726550345L1386.6717275579135 437.34885726550345Q1375.6566566855959 437.34885726550345 1370.6256283394869 440.5403466128148Q1365.6167631138453 443.7318359601262 1365.6167631138453 449.80453096820486L1365.6167631138453 449.80453096820486L1365.6167631138453 453.15116215878834Q1365.6167631138453 459.2016940463995 1370.0050609663986 462.57048835745036Q1374.3933588189516 465.91711954803384 1381.8844935369464 465.91711954803384ZM1456.729351355492 474.84885709641225L1443.9633939662465 474.84885709641225L1443.9633939662465 392.51286455987196L1456.729351355492 392.51286455987196L1456.729351355492 405.92155244267326L1457.3720818490476 405.92155244267326Q1460.3862662326194 398.8958432544947 1465.9048832290123 394.7513397270834Q1471.4013371049375 390.5846730792046 1480.6655214603275 390.5846730792046L1480.6655214603275 390.5846730792046Q1493.4314788495728 390.5846730792046 1500.8561242061653 398.80719077262495Q1508.2586064422906 407.02970846604524 1508.2586064422906 422.03414102250224L1508.2586064422906 422.03414102250224L1508.2586064422906 474.84885709641225L1495.492649053045 474.84885709641225L1495.492649053045 424.27261618971374Q1495.492649053045 402.0873326018061 1476.8313016194602 402.0873326018061L1476.8313016194602 402.0873326018061Q1472.9970817785932 402.0873326018061 1469.4066562628677 403.040346781906Q1465.8162307471425 403.99336096200597 1462.9571882068428 405.92155244267326Q1460.0759825460755 407.8275808028731 1458.3915853905498 410.7752758250426Q1456.729351355492 413.7229708472122 1456.729351355492 417.7123325313514L1456.729351355492 417.7123325313514L1456.729351355492 474.84885709641225ZM1565.7054146938954 476.7548854566121L1565.7054146938954 476.7548854566121Q1557.4164076390728 476.7548854566121 1550.5458402941663 473.7407010730402Q1543.6974360697275 470.70435356900094 1538.8215495668903 465.03059472933626Q1533.967826184521 459.37899901013895 1531.241762367026 451.4667650032628Q1528.5378616699984 443.5766941168541 1528.5378616699984 433.6697792679084L1528.5378616699984 433.6697792679084Q1528.5378616699984 423.94016938270215 1531.241762367026 415.96144601442364Q1533.967826184521 407.9827226461452 1538.8215495668903 402.33112692694795Q1543.6974360697275 396.65736808728326 1550.5458402941663 393.62102058324393Q1557.4164076390728 390.5846730792046 1565.7054146938954 390.5846730792046L1565.7054146938954 390.5846730792046Q1574.0165848691854 390.5846730792046 1580.7984997322221 393.62102058324393Q1587.5804145952588 396.65736808728326 1592.522790459498 402.33112692694795Q1597.4651663237373 407.9827226461452 1600.1912301412324 415.96144601442364Q1602.89513083826 423.94016938270215 1602.89513083826 433.6697792679084L1602.89513083826 433.6697792679084Q1602.89513083826 443.5766941168541 1600.1912301412324 451.4667650032628Q1597.4651663237373 459.37899901013895 1592.522790459498 465.03059472933626Q1587.5804145952588 470.70435356900094 1580.7984997322221 473.7407010730402Q1574.0165848691854 476.7548854566121 1565.7054146938954 476.7548854566121ZM1565.7054146938954 465.42953089775017L1565.7054146938954 465.42953089775017Q1576.0777550726573 465.42953089775017 1582.6380387310198 459.0465522031274Q1589.1761592689147 452.6635735085046 1589.1761592689147 439.5873324327149L1589.1761592689147 439.5873324327149L1589.1761592689147 427.7743892235693Q1589.1761592689147 414.6981481477796 1582.6380387310198 408.3151694531568Q1576.0777550726573 401.93219075853403 1565.7054146938954 401.93219075853403L1565.7054146938954 401.93219075853403Q1555.3330743151334 401.93219075853403 1548.7949537772386 408.3151694531568Q1542.2568332393437 414.6981481477796 1542.2568332393437 427.7743892235693L1542.2568332393437 427.7743892235693L1542.2568332393437 439.5873324327149Q1542.2568332393437 452.6635735085046 1548.7949537772386 459.0465522031274Q1555.3330743151334 465.42953089775017 1565.7054146938954 465.42953089775017ZM1628.914634267035 476.7548854566121L1628.914634267035 476.7548854566121Q1623.7949534390561 476.7548854566121 1621.4899889104424 474.2061266028565Q1619.162861261361 471.6573677491009 1619.162861261361 467.51286422168954L1619.162861261361 467.51286422168954L1619.162861261361 465.42953089775017Q1619.162861261361 461.28502737033887 1621.4899889104424 458.73626851658327Q1623.7949534390561 456.1875096628276 1628.914634267035 456.1875096628276L1628.914634267035 456.1875096628276Q1634.0121519745462 456.1875096628276 1636.31711650316 458.73626851658327Q1638.644244152241 461.28502737033887 1638.644244152241 465.42953089775017L1638.644244152241 465.42953089775017L1638.644244152241 467.51286422168954Q1638.644244152241 471.6573677491009 1636.31711650316 474.2061266028565Q1634.0121519745462 476.7548854566121 1628.914634267035 476.7548854566121ZM1670.5591376253549 373.2087866327315L1670.5591376253549 373.2087866327315Q1666.414634097944 373.2087866327315 1664.5750950991462 371.2141057906619Q1662.7355561003485 369.2194249485923 1662.7355561003485 366.0279356012809L1662.7355561003485 366.0279356012809L1662.7355561003485 363.9446022773415Q1662.7355561003485 360.75311293003017 1664.5750950991462 358.7584320879605Q1666.414634097944 356.7637512458909 1670.5591376253549 356.7637512458909L1670.5591376253549 356.7637512458909Q1674.7036411527663 356.7637512458909 1676.543180151564 358.7584320879605Q1678.3827191503613 360.75311293003017 1678.3827191503613 363.9446022773415L1678.3827191503613 363.9446022773415L1678.3827191503613 366.0279356012809Q1678.3827191503613 369.2194249485923 1676.543180151564 371.2141057906619Q1674.7036411527663 373.2087866327315 1670.5591376253549 373.2087866327315ZM1664.1761589307323 474.84885709641225L1664.1761589307323 392.51286455987196L1676.942116319978 392.51286455987196L1676.942116319978 474.84885709641225L1664.1761589307323 474.84885709641225ZM1735.1867969084108 476.7548854566121L1735.1867969084108 476.7548854566121Q1726.8756267331207 476.7548854566121 1720.0272225086817 473.7407010730402Q1713.156655163775 470.70435356900094 1708.3029317814055 465.03059472933626Q1703.4270452785688 459.37899901013895 1700.7231445815412 451.4667650032628Q1697.997080764046 443.5766941168541 1697.997080764046 433.6697792679084L1697.997080764046 433.6697792679084Q1697.997080764046 423.94016938270215 1700.7231445815412 415.96144601442364Q1703.4270452785688 407.9827226461452 1708.3029317814055 402.33112692694795Q1713.156655163775 396.65736808728326 1720.0272225086817 393.62102058324393Q1726.8756267331207 390.5846730792046 1735.1867969084108 390.5846730792046L1735.1867969084108 390.5846730792046Q1743.4758039632334 390.5846730792046 1750.25771882627 393.62102058324393Q1757.0396336893066 396.65736808728326 1761.9820095535458 402.33112692694795Q1766.9465485382523 407.9827226461452 1769.6504492352801 415.96144601442364Q1772.3543499323077 423.94016938270215 1772.3543499323077 433.6697792679084L1772.3543499323077 433.6697792679084Q1772.3543499323077 443.5766941168541 1769.6504492352801 451.4667650032628Q1766.9465485382523 459.37899901013895 1761.9820095535458 465.03059472933626Q1757.0396336893066 470.70435356900094 1750.25771882627 473.7407010730402Q1743.4758039632334 476.7548854566121 1735.1867969084108 476.7548854566121ZM1735.1867969084108 465.42953089775017L1735.1867969084108 465.42953089775017Q1745.5591372871727 465.42953089775017 1752.0972578250673 459.0465522031274Q1758.6353783629622 452.6635735085046 1758.6353783629622 439.5873324327149L1758.6353783629622 439.5873324327149L1758.6353783629622 427.7743892235693Q1758.6353783629622 414.6981481477796 1752.0972578250673 408.3151694531568Q1745.5591372871727 401.93219075853403 1735.1867969084108 401.93219075853403L1735.1867969084108 401.93219075853403Q1724.8144565296486 401.93219075853403 1718.2763359917537 408.3151694531568Q1711.7160523333916 414.6981481477796 1711.7160523333916 427.7743892235693L1711.7160523333916 427.7743892235693L1711.7160523333916 439.5873324327149Q1711.7160523333916 452.6635735085046 1718.2763359917537 459.0465522031274Q1724.8144565296486 465.42953089775017 1735.1867969084108 465.42953089775017Z " fill="maroon" transform="matrix(0.5146685133526909,0,0,0.5146685133526909,-37.17496186146623,77.78482939776477)"/></g></svg>